<?xml version="1.0" encoding="UTF-8"?>
<svg id="Layer_1" data-name="Layer 1" xmlns="http://www.w3.org/2000/svg" viewBox="0 0 543.63 76.13">
  <defs>
    <style>
      .cls-1 {
        fill: #fff;
      }

      .cls-2 {
        fill: #f95;
      }
    </style>
  </defs>
  <polygon class="cls-2" points="46.81 8.82 19.39 8.82 0 28.2 0 55.62 19.39 75.01 46.81 75.01 66.2 55.62 66.2 28.2 46.81 8.82"/>
  <path class="cls-2" d="M73.2,8.82c0,3.87-3.14,7.01-7.01,7.01s-7.01-3.14-7.01-7.01,3.14-7.01,7.01-7.01,7.01,3.14,7.01,7.01"/>
  <g>
    <polygon class="cls-1" points="302.05 .44 294.87 .44 289.79 5.52 289.79 12.7 294.87 17.78 302.05 17.78 307.13 12.7 307.13 5.52 302.05 .44"/>
    <polygon class="cls-1" points="450.93 .44 443.75 .44 438.67 5.52 438.67 12.7 443.75 17.78 450.93 17.78 456.01 12.7 456.01 5.52 450.93 .44"/>
    <rect class="cls-1" x="222.21" width="15.91" height="75.01"/>
    <rect class="cls-1" x="290.5" y="24.8" width="15.91" height="50.21"/>
    <polygon class="cls-1" points="272.22 4.03 256.31 4.03 256.31 24.8 245.04 24.8 245.04 38.33 256.31 38.33 256.31 75.01 272.22 75.01 272.22 38.33 283.58 38.33 283.58 24.8 272.22 24.8 272.22 4.03"/>
    <path class="cls-1" d="M196.49,53.62c0,2.62-.67,4.69-2.01,6.2-1.34,1.52-3.19,2.27-5.53,2.27-1.59,0-2.96-.34-4.13-1.03s-2.07-1.67-2.69-2.94-.93-2.77-.93-4.5v-28.83h-15.91v29.03c0,4.34,1,8.18,3,11.52,2,3.34,4.8,5.98,8.42,7.9,3.62,1.93,7.7,2.89,12.24,2.89s8.78-.95,12.29-2.84,6.25-4.51,8.21-7.85c1.96-3.34,2.94-7.21,2.94-11.62v-29.03h-15.91v28.83h0Z"/>
    <polygon class="cls-1" points="116.77 42.05 91.1 2.07 79.32 2.07 79.32 75.01 95.54 75.01 95.54 34.63 111.35 59.31 122.1 59.31 137.91 34.63 137.91 75.01 154.13 75.01 154.13 2.07 142.35 2.07 116.77 42.05"/>
    <rect class="cls-1" x="439.38" y="24.8" width="15.91" height="50.21"/>
    <rect class="cls-1" x="466.25" width="15.91" height="75.01"/>
    <path class="cls-1" d="M363.4,36c1.74-.96,3.25-2.09,4.49-3.4,2.89-3.06,4.34-6.9,4.34-11.52,0-3.44-.84-6.61-2.53-9.51-1.69-2.89-4.18-5.2-7.49-6.92-3.31-1.72-7.3-2.58-11.99-2.58h-31.41v72.94h31.2c5.17,0,9.59-.95,13.28-2.84,3.68-1.89,6.51-4.43,8.47-7.59,1.96-3.17,2.94-6.75,2.94-10.75,0-5.23-1.65-9.64-4.96-13.22-1.72-1.86-3.84-3.39-6.35-4.6h0ZM334.93,14.78h12.19c2.62,0,4.75.67,6.41,2.01,1.65,1.34,2.48,3.32,2.48,5.94,0,2.76-.83,4.79-2.48,6.1-1.65,1.31-3.79,1.96-6.41,1.96h-12.19V14.78ZM355.8,59.56c-1.79,1.83-4.24,2.74-7.34,2.74h-13.53v-19.11h13.53c2.07,0,3.84.41,5.32,1.24s2.63,1.96,3.46,3.41,1.24,3.07,1.24,4.86c0,2.76-.9,5.05-2.69,6.87h.01Z"/>
    <path class="cls-1" d="M413.56,53.62c0,2.62-.67,4.69-2.02,6.2-1.34,1.52-3.19,2.27-5.53,2.27-1.59,0-2.96-.34-4.13-1.03s-2.07-1.67-2.69-2.94-.93-2.77-.93-4.5v-28.83h-15.91v29.03c0,4.34,1,8.18,3,11.52,2,3.34,4.8,5.98,8.42,7.9,3.62,1.93,7.7,2.89,12.24,2.89s8.78-.95,12.29-2.84,6.25-4.51,8.21-7.85c1.96-3.34,2.94-7.21,2.94-11.62v-29.03h-15.91v28.83h.02Z"/>
    <path class="cls-1" d="M527.72,0v27.89c-1.12-.86-2.36-1.6-3.72-2.21-2.83-1.27-5.92-1.91-9.3-1.91-4.75,0-8.99,1.14-12.71,3.41s-6.61,5.37-8.68,9.3-3.1,8.4-3.1,13.43,1.03,9.5,3.1,13.43c2.07,3.93,4.94,7.03,8.63,9.3,3.68,2.27,7.94,3.41,12.76,3.41,3.37,0,6.47-.71,9.3-2.12,1.49-.74,2.83-1.63,4.03-2.65v3.73h15.6V0h-15.91ZM529.37,54.83l-6.96,6.96h-9.84l-6.96-6.96v-9.84l6.96-6.96h9.84l6.96,6.96v9.84Z"/>
  </g>
</svg>